<svg width="24" height="24" viewBox="0 0 24 24" fill="none" xmlns="http://www.w3.org/2000/svg">
<g clip-path="url(#clip0_116_425)">
<path d="M4.92904 4.92902C5.85323 3.98111 6.95644 3.22614 8.17468 2.70791C9.39292 2.18968 10.7019 1.9185 12.0258 1.91011C13.3496 1.90172 14.662 2.15629 15.8867 2.65904C17.1114 3.16179 18.2241 3.90272 19.1602 4.83884C20.0963 5.77497 20.8373 6.88766 21.34 8.11237C21.8428 9.33707 22.0973 10.6494 22.089 11.9733C22.0806 13.2971 21.8094 14.6061 21.2912 15.8244C20.7729 17.0426 20.018 18.1458 19.07 19.07C17.184 20.8916 14.658 21.8995 12.036 21.8768C9.41406 21.854 6.90594 20.8023 5.05186 18.9482C3.19778 17.0941 2.14609 14.586 2.1233 11.964C2.10052 9.34207 3.10846 6.81604 4.93004 4.93002L4.92904 4.92902ZM13 9.00002C13 8.7348 12.8947 8.48045 12.7071 8.29291C12.5196 8.10538 12.2653 8.00002 12 8.00002C11.7348 8.00002 11.4805 8.10538 11.2929 8.29291C11.1054 8.48045 11 8.7348 11 9.00002V11H9.00004C8.73483 11 8.48047 11.1054 8.29294 11.2929C8.1054 11.4805 8.00004 11.7348 8.00004 12C8.00004 12.2652 8.1054 12.5196 8.29294 12.7071C8.48047 12.8947 8.73483 13 9.00004 13H11V15C11 15.2652 11.1054 15.5196 11.2929 15.7071C11.4805 15.8947 11.7348 16 12 16C12.2653 16 12.5196 15.8947 12.7071 15.7071C12.8947 15.5196 13 15.2652 13 15V13H15C15.2653 13 15.5196 12.8947 15.7071 12.7071C15.8947 12.5196 16 12.2652 16 12C16 11.7348 15.8947 11.4805 15.7071 11.2929C15.5196 11.1054 15.2653 11 15 11H13V9.00002Z" fill="#007144"/>
</g>
<defs>
<clipPath id="clip0_116_425">
<rect width="24" height="24" fill="white"/>
</clipPath>
</defs>
</svg>
