<svg width="182" height="182" viewBox="0 0 182 182" fill="none" xmlns="http://www.w3.org/2000/svg">
<path d="M104.317 12.9617V44.0642H135.42L104.317 12.9617Z" fill="white"/>
<path d="M93.648 157.72H35.971C32.2919 157.692 32.2636 152.088 35.971 152.06H90.6481C89.2614 148.862 88.2142 145.268 87.8463 141.645H35.971C32.2919 141.617 32.2636 136.014 35.971 135.985H87.5633C87.6199 132.448 88.1859 128.938 89.2614 125.571H35.971C32.2636 125.514 32.2353 119.995 35.971 119.91H91.5254C93.4499 116.033 95.997 112.552 99.11 109.467H35.971C32.2919 109.439 32.2353 103.864 35.971 103.807H106.553C115.609 98.3452 126.986 97.0151 137.061 100.072V49.7245H101.487C99.9025 49.7245 98.6572 48.4509 98.6572 46.8944V11.3203H30.5372C25.9525 11.3203 22.2451 15.0277 22.2451 19.6124V161.513C22.2451 166.097 25.9525 169.805 30.5372 169.805H106.015C100.95 166.777 96.7894 162.56 93.648 157.72ZM46.5838 53.1772C35.0371 49.3849 36.7068 32.5176 48.1686 30.0837V27.7914C48.1686 26.2348 49.4422 24.9613 50.9987 24.9613C52.5553 24.9613 53.8288 26.2348 53.8288 27.7914V30.0837C59.2908 31.3573 63.3662 36.2533 63.3662 42.1116C63.3662 43.6964 62.1209 44.9416 60.5361 44.9416C58.9795 44.9416 57.706 43.6964 57.706 42.1116C57.706 39.423 56.1212 37.074 53.8288 36.0552V49.6396C66.649 52.5546 66.1962 70.3274 53.8288 73.2707V75.5631C53.7722 79.2705 48.2535 79.2988 48.1686 75.5631V73.2707C42.7066 71.9972 38.603 67.0728 38.603 61.2146C38.6313 57.5072 44.2631 57.5355 44.2631 61.2146C44.2631 63.9032 45.8763 66.2521 48.1686 67.3276V53.7149L46.5838 53.1772ZM35.971 87.7324H123.307C126.986 87.789 127.043 93.3077 123.307 93.3926H35.971C32.2919 93.336 32.2353 87.8173 35.971 87.7324Z" fill="white"/>
<path d="M57.7053 61.2146C57.7053 58.7242 56.1771 56.4884 53.8281 55.6111V67.3276C56.1205 66.2522 57.7053 63.9032 57.7053 61.2146Z" fill="white"/>
<path d="M48.1685 36.0552C43.2441 38.0645 42.8479 45.8755 48.1685 47.7434V36.0552Z" fill="white"/>
<path d="M137.062 106.015C114.308 97.5246 89.658 117.731 93.5352 141.646C100.441 181.465 157.58 177.814 158.882 136.948C158.882 122.684 149.769 110.543 137.062 106.015ZM145.524 128.74L123.562 149.315C122.43 150.39 120.478 150.306 119.487 149.089L106.327 133.806C103.95 131.004 108.195 127.325 110.629 130.127L121.864 143.174L141.675 124.608C144.363 122.061 148.241 126.222 145.524 128.74Z" fill="white"/>
</svg>
