<svg width="16" height="16" viewBox="0 0 16 16" fill="none" xmlns="http://www.w3.org/2000/svg">
<path d="M7.80478 1.86127C7.87189 1.6799 8.12843 1.6799 8.19555 1.86127L9.76752 6.10947C9.78862 6.1665 9.83358 6.21146 9.89061 6.23256L14.1388 7.80453C14.3202 7.87165 14.3202 8.12819 14.1388 8.1953L9.89061 9.76728C9.83358 9.78838 9.78862 9.83334 9.76752 9.89037L8.19555 14.1386C8.12843 14.3199 7.87189 14.3199 7.80478 14.1386L6.2328 9.89037C6.2117 9.83334 6.16674 9.78838 6.10972 9.76728L1.86152 8.1953C1.68014 8.12819 1.68014 7.87165 1.86152 7.80453L6.10972 6.23256C6.16674 6.21146 6.2117 6.1665 6.2328 6.10947L7.80478 1.86127Z" fill="url(#paint0_linear_199_5055)"/>
<defs>
<linearGradient id="paint0_linear_199_5055" x1="8.00016" y1="1.33325" x2="8.00016" y2="14.6666" gradientUnits="userSpaceOnUse">
<stop stop-color="#FFEA00"/>
<stop offset="1" stop-color="#FFB700"/>
</linearGradient>
</defs>
</svg>
