<svg width="16" height="16" viewBox="0 0 16 16" fill="none" xmlns="http://www.w3.org/2000/svg">
<path d="M7.80459 1.86127C7.87171 1.6799 8.12825 1.6799 8.19537 1.86127L9.76734 6.10947C9.78844 6.1665 9.8334 6.21146 9.89043 6.23256L14.1386 7.80453C14.32 7.87165 14.32 8.12819 14.1386 8.1953L9.89043 9.76728C9.8334 9.78838 9.78844 9.83334 9.76734 9.89037L8.19537 14.1386C8.12825 14.3199 7.87171 14.3199 7.80459 14.1386L6.23262 9.89037C6.21152 9.83334 6.16656 9.78838 6.10953 9.76728L1.86133 8.1953C1.67996 8.12819 1.67996 7.87165 1.86134 7.80453L6.10953 6.23256C6.16656 6.21146 6.21152 6.1665 6.23262 6.10947L7.80459 1.86127Z" fill="url(#paint0_linear_116_3070)"/>
<defs>
<linearGradient id="paint0_linear_116_3070" x1="7.99998" y1="1.33325" x2="7.99998" y2="14.6666" gradientUnits="userSpaceOnUse">
<stop stop-color="#FFEA00"/>
<stop offset="1" stop-color="#FFB700"/>
</linearGradient>
</defs>
</svg>
